<?xml version="1.0" encoding="utf-8"?>
<!-- Generator: Adobe Illustrator 21.1.0, SVG Export Plug-In . SVG Version: 6.00 Build 0)  -->
<svg version="1.1" id="Слой_1" xmlns="http://www.w3.org/2000/svg" xmlns:xlink="http://www.w3.org/1999/xlink" x="0px" y="0px"
	 viewBox="0 0 320 320" style="enable-background:new 0 0 320 320;" xml:space="preserve">
<style type="text/css">
	.st0{fill:#0E0F0F;}
</style>
<g>
	<g>
		<path class="st0" d="M32.3,8.9c3-3.8,8.5-7.8,17.2-8.7c8.7-1,19.9,2.6,18.5,7.3c-1.7,5.2-8.7,9.5-10.7,14.6
			c-5.6,11-9.2,23.1,0,33.8c4.7-6,9.8-11.9,17.3-17.2c23.1-16.7,62.6-27.4,103.5-28.3c20.6-0.9,41.8,0.9,60,5.7
			c19.1,4.9,34.6,14,37.8,24.7c3.4,11.5-5.1,23.4-20.4,32C223.4,90.6,172.8,98,125.7,96c4.5,10.1,13.6,19.6,26.6,27.7
			c37.3,23.9,93.3,38.6,131,62.4c24.5,14.7,37.3,33.9,36.6,52.9c-0.4,16.1-11.6,32-30.6,45c-23.6,16-59,27.5-97.6,32.7
			c-30.2,3.9-62.7,5-93,0.6c-31.8-4.3-60.2-14.5-77.9-28.3c-25.4-19.8-28-46.2-5.8-66.9c5.5-6.2,14.7-12,27.9-14.4
			c8.5-1.4,19.3-1.5,26.1,1.9c5.4,2.4,8.2,6.7,3.9,9.8c-8,5.4-20.5,9.3-25.2,15.9c-20.3,22.8,4.9,51.5,49.9,61.8
			c11,2.3,22.7,4.4,34.8,4.3c26.8,0.1,53.7-7.1,67.1-18.6c21.3-17,27.8-38,21.2-57.6c-5.7-17.7-23.2-34.2-46.8-47.8
			c-24.7-13.9-55.4-24.7-81.3-38c-25.6-12.8-43.2-29.8-45.6-47.9c-1-3.8,0-7.6-0.2-11.4c-12.3-7-21.4-15.5-24.9-24.6
			C15.6,39.8,21,23.6,32.3,8.9z M154.1,37.7c-20,10.6-29.6,25-31.7,39.2c17.1,1.1,34.7,1,51.2-1.7c23.7-3.4,46.8-11.1,55.2-23.1
			c7.7-11.4-12.9-24.4-37-24.2C176.9,28,164.1,32.7,154.1,37.7z"/>
	</g>
</g>
</svg>
