<?xml version="1.0" standalone="no"?>
<!DOCTYPE svg PUBLIC "-//W3C//DTD SVG 20010904//EN"
 "http://www.w3.org/TR/2001/REC-SVG-20010904/DTD/svg10.dtd">
<svg version="1.0" xmlns="http://www.w3.org/2000/svg"
 width="700.000000pt" height="700.000000pt" viewBox="0 0 700.000000 700.000000"
 preserveAspectRatio="xMidYMid meet">
<metadata>
Created by potrace 1.11, written by Peter Selinger 2001-2013
</metadata>
<g transform="translate(0.000000,700.000000) scale(0.100000,-0.100000)"
fill="#000000" stroke="none">
<path d="M1010 6984 c-94 -20 -202 -76 -263 -138 -103 -102 -231 -324 -281
-484 -34 -107 -41 -163 -40 -292 2 -252 105 -450 334 -643 57 -47 235 -167
249 -167 6 0 11 -6 12 -12 0 -7 1 -74 3 -148 3 -149 17 -209 78 -340 112 -243
375 -496 728 -703 136 -79 432 -226 630 -312 41 -18 100 -44 130 -58 30 -14
165 -74 300 -132 729 -317 1008 -467 1344 -723 95 -73 287 -256 354 -337 98
-119 199 -298 241 -426 22 -66 24 -77 41 -159 9 -46 7 -299 -3 -335 -3 -11
-12 -49 -22 -84 -30 -115 -94 -245 -183 -371 -51 -72 -219 -245 -297 -305 -27
-22 -52 -42 -55 -46 -8 -10 -172 -104 -223 -127 -168 -78 -444 -162 -612 -186
-22 -3 -53 -8 -70 -11 -63 -11 -92 -14 -165 -21 -41 -3 -91 -8 -110 -10 -51
-5 -420 -5 -450 0 -14 3 -52 7 -85 10 -72 7 -121 14 -155 21 -14 3 -43 8 -65
11 -524 78 -1016 295 -1267 560 -147 154 -218 308 -218 467 1 126 50 246 149
363 73 87 142 134 360 245 173 89 241 139 241 180 0 38 -36 87 -87 120 -224
141 -728 100 -1023 -85 -92 -58 -93 -59 -216 -181 -217 -219 -313 -418 -312
-653 0 -118 18 -207 62 -311 91 -215 271 -411 541 -587 99 -64 322 -181 400
-209 28 -10 55 -22 60 -25 18 -12 342 -124 391 -135 10 -2 60 -15 109 -28 50
-14 101 -27 115 -30 14 -3 34 -7 45 -10 42 -11 282 -56 325 -61 25 -3 56 -8
70 -11 14 -3 52 -8 85 -11 33 -3 63 -8 66 -10 3 -2 40 -6 82 -9 42 -3 85 -8
95 -10 143 -27 1054 -28 1292 -1 19 3 69 7 110 11 94 8 137 12 320 35 47 5 94
12 105 14 11 2 41 6 66 10 60 9 93 14 154 26 28 5 63 12 79 14 300 51 791 190
1096 313 142 57 434 197 491 236 19 13 41 26 49 29 24 10 223 149 281 197 96
79 252 244 310 327 92 130 164 291 184 409 24 138 7 333 -42 468 -110 308
-355 573 -762 826 -72 45 -133 81 -136 81 -3 0 -24 12 -48 27 -109 68 -513
260 -827 393 -156 66 -360 151 -465 195 -44 19 -150 63 -237 99 -506 212 -826
369 -1108 544 -205 128 -317 220 -455 377 -33 38 -106 147 -133 201 l-21 40
292 0 c253 0 496 7 617 19 19 2 73 6 119 10 47 4 92 8 100 10 26 4 112 15 166
21 259 25 719 126 985 214 610 205 949 452 1011 740 65 304 -226 568 -806 730
-60 17 -119 32 -130 35 -11 2 -45 9 -75 15 -66 14 -75 15 -170 30 -41 7 -83
14 -92 16 -9 1 -52 6 -95 9 -43 4 -87 9 -98 11 -49 10 -299 19 -510 18 -281
-2 -463 -12 -710 -40 -73 -8 -119 -15 -270 -40 -132 -22 -175 -30 -260 -50
-11 -3 -31 -7 -44 -10 -93 -19 -461 -129 -516 -154 -11 -5 -51 -21 -90 -36
-118 -45 -347 -162 -456 -233 -164 -107 -300 -228 -417 -373 -52 -64 -56 -64
-99 9 -106 181 -95 362 37 638 36 74 66 118 114 170 73 78 124 147 133 183 20
80 -124 152 -316 157 -54 2 -124 -3 -161 -11z m3460 -618 c321 -64 548 -214
567 -376 17 -142 -176 -315 -502 -450 -55 -23 -171 -61 -270 -88 -118 -33
-346 -80 -475 -98 -25 -3 -53 -8 -62 -9 -9 -2 -48 -7 -85 -10 -37 -4 -77 -9
-87 -11 -87 -16 -676 -24 -811 -10 -27 2 -53 5 -57 5 -13 1 -9 24 18 117 82
284 292 527 612 708 209 119 465 205 687 232 28 4 52 8 53 9 12 11 339 -5 412
-19z"/>
</g>
</svg>
